<svg xmlns="http://www.w3.org/2000/svg" viewBox="0 0 15 16"><defs><style>.cls-1{fill:#65a601;}</style></defs><title>search</title><g id="Слой_2" data-name="Слой 2"><g id="Слой_1-2" data-name="Слой 1"><g id="search"><path id="Shape" class="cls-1" d="M14.77,14.57l-3.7-4a6.56,6.56,0,0,0,1.48-4.15A6.38,6.38,0,0,0,6.27,0,6.37,6.37,0,0,0,0,6.46a6.37,6.37,0,0,0,6.27,6.46,6.07,6.07,0,0,0,3.6-1.17l3.72,4a.8.8,0,0,0,.59.26.78.78,0,0,0,.57-.24A.87.87,0,0,0,14.77,14.57ZM6.27,1.69a4.71,4.71,0,0,1,4.64,4.77,4.71,4.71,0,0,1-4.64,4.77A4.71,4.71,0,0,1,1.64,6.46,4.71,4.71,0,0,1,6.27,1.69Z"/></g></g></g></svg>