<svg xmlns="http://www.w3.org/2000/svg" viewBox="0 0 23.3 24.39"><defs><style>.cls-1{fill:#65a601;}.cls-2{fill:#fff;stroke:#65a601;}</style></defs><title>Ресурс 15</title><g id="Слой_2" data-name="Слой 2"><g id="Слой_1-2" data-name="Слой 1"><path id="Shape" class="cls-1" d="M6.3,20.19a2.1,2.1,0,1,0,2.1,2.1A2.1,2.1,0,0,0,6.3,20.19ZM0,3.39v2.1H2.1l3.78,8L4.41,16a3.5,3.5,0,0,0-.21,1,2.11,2.11,0,0,0,2.1,2.1H18.9V17H6.72a.23.23,0,0,1-.21-.21v-.11l.94-1.78h7.78a1.91,1.91,0,0,0,1.78-1l3.78-6.83A.57.57,0,0,0,21,6.54a1,1,0,0,0-1.05-1H4.41l-1-2.1Zm16.8,16.8a2.1,2.1,0,1,0,2.1,2.1A2.11,2.11,0,0,0,16.8,20.19Z"/><circle id="Oval-3" class="cls-2" cx="16.8" cy="6.5" r="6"/></g></g></svg>