<svg xmlns="http://www.w3.org/2000/svg" viewBox="0 0 15 15"><defs><style>.cls-1{fill:#65a601;}</style></defs><title>call-answer</title><g id="Слой_2" data-name="Слой 2"><g id="Слой_1-2" data-name="Слой 1"><g id="call-answer"><path id="Shape" class="cls-1" d="M14.66,11.86,12.35,9.54a1.22,1.22,0,0,0-1.71,0L9.48,10.74l-.23-.12a11.45,11.45,0,0,1-2.81-2,11.57,11.57,0,0,1-2-2.82l-.13-.22.78-.79.39-.38a1.21,1.21,0,0,0,0-1.71L3.16.34a1.2,1.2,0,0,0-1.7,0L.81,1h0A3.88,3.88,0,0,0,.29,2,3.47,3.47,0,0,0,.05,3c-.31,2.54.85,4.87,4,8,4.34,4.35,7.85,4,8,4a4.09,4.09,0,0,0,1-.24,3.84,3.84,0,0,0,1-.54h0l.66-.65A1.21,1.21,0,0,0,14.66,11.86Z"/></g></g></g></svg>