<svg xmlns="http://www.w3.org/2000/svg" xmlns:xlink="http://www.w3.org/1999/xlink" viewBox="0 0 25 25"><defs><style>.cls-1{fill:#fff;}.cls-2{mask:url(#mask);}.cls-3{fill:url(#Безымянный_градиент_2);}</style><mask id="mask" x="0" y="0" width="25" height="25" maskUnits="userSpaceOnUse"><g id="mask-13"><rect id="path-12" class="cls-1" width="25" height="25" rx="5" ry="5"/></g></mask><linearGradient id="Безымянный_градиент_2" x1="-315.58" y1="500.6" x2="-314.99" y2="499.11" gradientTransform="matrix(24.99, 0, 0, -24.99, 7888.7, 12498.27)" gradientUnits="userSpaceOnUse"><stop offset="0" stop-color="#d50ab5"/><stop offset="1" stop-color="#efa958"/></linearGradient></defs><title>instagram</title><g id="Слой_2" data-name="Слой 2"><g id="Слой_1-2" data-name="Слой 1"><g id="instagram"><g id="Mask-2" data-name="Mask"><rect id="path-12-2" data-name="path-12" class="cls-1" width="25" height="25" rx="5" ry="5"/></g><g class="cls-2"><g id="Shape"><path class="cls-3" d="M12.49,10A2.49,2.49,0,1,0,15,12.49,2.48,2.48,0,0,0,12.49,10Zm0,0A2.49,2.49,0,1,0,15,12.49,2.48,2.48,0,0,0,12.49,10Zm4.14-4H8.35A2.39,2.39,0,0,0,6,8.35v8.28A2.4,2.4,0,0,0,8.35,19h8.28a2.41,2.41,0,0,0,2.4-2.4V8.35A2.4,2.4,0,0,0,16.63,6ZM12.49,16.8a4.31,4.31,0,1,1,4.31-4.31A4.31,4.31,0,0,1,12.49,16.8Zm4.44-7.72a1,1,0,1,1,1-1A1,1,0,0,1,16.93,9.08ZM12.49,10A2.49,2.49,0,1,0,15,12.49,2.48,2.48,0,0,0,12.49,10Zm4.14-4H8.35A2.39,2.39,0,0,0,6,8.35v8.28A2.4,2.4,0,0,0,8.35,19h8.28a2.41,2.41,0,0,0,2.4-2.4V8.35A2.4,2.4,0,0,0,16.63,6ZM12.49,16.8a4.31,4.31,0,1,1,4.31-4.31A4.31,4.31,0,0,1,12.49,16.8Zm4.44-7.72a1,1,0,1,1,1-1A1,1,0,0,1,16.93,9.08ZM12.49,10A2.49,2.49,0,1,0,15,12.49,2.48,2.48,0,0,0,12.49,10ZM0,0V25H25V0ZM20.85,16.63a4.22,4.22,0,0,1-4.22,4.22H8.35a4.22,4.22,0,0,1-4.21-4.22V8.35A4.22,4.22,0,0,1,8.35,4.14h8.28a4.22,4.22,0,0,1,4.22,4.21ZM16.63,6H8.35A2.39,2.39,0,0,0,6,8.35v8.28A2.4,2.4,0,0,0,8.35,19h8.28a2.41,2.41,0,0,0,2.4-2.4V8.35A2.4,2.4,0,0,0,16.63,6ZM12.49,16.8a4.31,4.31,0,1,1,4.31-4.31A4.31,4.31,0,0,1,12.49,16.8Zm4.44-7.72a1,1,0,1,1,1-1A1,1,0,0,1,16.93,9.08ZM12.49,10A2.49,2.49,0,1,0,15,12.49,2.48,2.48,0,0,0,12.49,10Zm0,0A2.49,2.49,0,1,0,15,12.49,2.48,2.48,0,0,0,12.49,10Zm0,0A2.49,2.49,0,1,0,15,12.49,2.48,2.48,0,0,0,12.49,10Zm4.14-4H8.35A2.39,2.39,0,0,0,6,8.35v8.28A2.4,2.4,0,0,0,8.35,19h8.28a2.41,2.41,0,0,0,2.4-2.4V8.35A2.4,2.4,0,0,0,16.63,6ZM12.49,16.8a4.31,4.31,0,1,1,4.31-4.31A4.31,4.31,0,0,1,12.49,16.8Zm4.44-7.72a1,1,0,1,1,1-1A1,1,0,0,1,16.93,9.08ZM12.49,10A2.49,2.49,0,1,0,15,12.49,2.48,2.48,0,0,0,12.49,10Zm0,0A2.49,2.49,0,1,0,15,12.49,2.48,2.48,0,0,0,12.49,10Zm0,0A2.49,2.49,0,1,0,15,12.49,2.48,2.48,0,0,0,12.49,10Zm4.14-4H8.35A2.39,2.39,0,0,0,6,8.35v8.28A2.4,2.4,0,0,0,8.35,19h8.28a2.41,2.41,0,0,0,2.4-2.4V8.35A2.4,2.4,0,0,0,16.63,6ZM12.49,16.8a4.31,4.31,0,1,1,4.31-4.31A4.31,4.31,0,0,1,12.49,16.8Zm4.44-7.72a1,1,0,1,1,1-1A1,1,0,0,1,16.93,9.08ZM12.49,10A2.49,2.49,0,1,0,15,12.49,2.48,2.48,0,0,0,12.49,10Z"/></g></g></g></g></g></svg>