<svg xmlns="http://www.w3.org/2000/svg" viewBox="0 0 20 18"><defs><style>.cls-1{fill:#65a601;}</style></defs><title>Меню</title><g id="Слой_2" data-name="Слой 2"><g id="Слой_1-2" data-name="Слой 1"><g id="Меню"><path id="Rectangle" class="cls-1" d="M2,0H18a2,2,0,0,1,2,2h0a2,2,0,0,1-2,2H2A2,2,0,0,1,0,2H0A2,2,0,0,1,2,0Z"/><path id="Rectangle-2" data-name="Rectangle" class="cls-1" d="M2,7H18a2,2,0,0,1,2,2h0a2,2,0,0,1-2,2H2A2,2,0,0,1,0,9H0A2,2,0,0,1,2,7Z"/><path id="Rectangle-3" data-name="Rectangle" class="cls-1" d="M2,14H18a2,2,0,0,1,2,2h0a2,2,0,0,1-2,2H2a2,2,0,0,1-2-2H0A2,2,0,0,1,2,14Z"/></g></g></g></svg>