<svg xmlns="http://www.w3.org/2000/svg" viewBox="0 0 21.5 23.96"><defs><style>.cls-1,.cls-4{fill:#65a601;}.cls-2{fill:#fff;stroke:#65a601;}.cls-3,.cls-4{isolation:isolate;}.cls-4{font-size:9px;font-family:ArialMT, Arial;}</style></defs><title>Ресурс 5</title><g id="Слой_2" data-name="Слой 2"><g id="Слой_1-2" data-name="Слой 1"><path id="Shape" class="cls-1" d="M6.3,19.76a2.1,2.1,0,1,0,2.1,2.1A2.1,2.1,0,0,0,6.3,19.76ZM0,3v2.1H2.1l3.78,8L4.41,15.56a3.5,3.5,0,0,0-.21,1,2.11,2.11,0,0,0,2.1,2.1H18.9v-2.1H6.72a.23.23,0,0,1-.21-.21v-.11l.94-1.78h7.78a1.91,1.91,0,0,0,1.78-1l3.78-6.83A.57.57,0,0,0,21,6.11,1,1,0,0,0,20,5.06H4.41L3.46,3Zm16.8,16.8a2.1,2.1,0,1,0,2.1,2.1A2.11,2.11,0,0,0,16.8,19.76Z"/><circle id="Oval-3" class="cls-2" cx="15" cy="6.5" r="6"/><g id="_2" data-name="2" class="cls-3"><text class="cls-4" transform="translate(13 9.29)">2</text></g></g></g></svg>