<svg id="Слой_1" data-name="Слой 1" xmlns="http://www.w3.org/2000/svg" viewBox="0 0 19 24"><defs><style>.cls-1{fill:#65a601;}</style></defs><title>trash</title><g id="delete-button"><path id="Shape" class="cls-1" d="M16.32,3.38H12.66a3.17,3.17,0,0,0-6.32,0H2.68A2.71,2.71,0,0,0,0,6.12v.14A2.74,2.74,0,0,0,1.7,8.81v13A2.71,2.71,0,0,0,4.38,24.5H14.62a2.71,2.71,0,0,0,2.68-2.74V8.81A2.74,2.74,0,0,0,19,6.26V6.12A2.71,2.71,0,0,0,16.32,3.38ZM9.5,1.8a1.92,1.92,0,0,1,1.87,1.58H7.63A1.92,1.92,0,0,1,9.5,1.8Zm6.53,20a1.42,1.42,0,0,1-1.41,1.44H4.38A1.42,1.42,0,0,1,3,21.76V9H16Zm1.7-15.5A1.43,1.43,0,0,1,16.32,7.7H2.68A1.43,1.43,0,0,1,1.27,6.26V6.12A1.43,1.43,0,0,1,2.68,4.68H16.32a1.43,1.43,0,0,1,1.41,1.44v.14Z" transform="translate(0 -0.5)"/><path id="Shape-2" data-name="Shape" class="cls-1" d="M5.5,21.5c.28,0,.5-.3.5-.68V13.18c0-.37-.22-.68-.5-.68s-.5.31-.5.68v7.64C5,21.2,5.22,21.5,5.5,21.5Z" transform="translate(0 -0.5)"/><path id="Shape-3" data-name="Shape" class="cls-1" d="M9.5,21.5c.28,0,.5-.3.5-.68V13.18c0-.37-.22-.68-.5-.68s-.5.31-.5.68v7.64C9,21.2,9.22,21.5,9.5,21.5Z" transform="translate(0 -0.5)"/><path id="Shape-4" data-name="Shape" class="cls-1" d="M12.5,21.5c.28,0,.5-.3.5-.68V13.18c0-.37-.22-.68-.5-.68s-.5.31-.5.68v7.64C12,21.2,12.22,21.5,12.5,21.5Z" transform="translate(0 -0.5)"/></g></svg>