<svg xmlns="http://www.w3.org/2000/svg" xmlns:xlink="http://www.w3.org/1999/xlink" viewBox="0 0 25 25"><defs><style>.cls-1{fill:#fff;}.cls-2{fill:#d8d8d8;}.cls-3{mask:url(#mask);}.cls-4{fill:#44678d;}</style><mask id="mask" x="0" y="0" width="25" height="25" maskUnits="userSpaceOnUse"><g id="mask-11"><rect id="path-10" class="cls-1" width="25" height="25" rx="5" ry="5"/></g></mask></defs><title>vk-2</title><g id="Слой_2" data-name="Слой 2"><g id="Слой_1-2" data-name="Слой 1"><g id="vk-2"><g id="Mask-2" data-name="Mask"><rect id="path-10-2" data-name="path-10" class="cls-2" width="25" height="25" rx="5" ry="5"/></g><g class="cls-3"><rect id="Rectangle-path" class="cls-4" width="24.99" height="24.99"/><path id="Shape" class="cls-1" d="M6.47,7.6a16.43,16.43,0,0,0,2.36,4.13,2.2,2.2,0,0,0,.48.43.35.35,0,0,0,.6-.18,5.29,5.29,0,0,0,.22-1.25c0-.85,0-1.41-.05-2.25a1.1,1.1,0,0,0-1-1.16c-.25-.05-.27-.25-.11-.45a1.59,1.59,0,0,1,1.28-.52c.81,0,1.62,0,2.43,0a5.34,5.34,0,0,1,1,.1.91.91,0,0,1,.72.8,4.74,4.74,0,0,1,.05.65c0,.92-.07,1.85-.08,2.77a5,5,0,0,0,.1,1.09c.11.49.44.62.79.26a12.16,12.16,0,0,0,1.18-1.48,15,15,0,0,0,1.56-3c.22-.55.38-.67,1-.67h3.33a2,2,0,0,1,.59.08.51.51,0,0,1,.35.65,5.51,5.51,0,0,1-1,1.95c-.68,1-1.39,1.89-2.09,2.84-.09.12-.16.25-.24.38A.78.78,0,0,0,20,13.86c.6.63,1.25,1.21,1.83,1.85A9.79,9.79,0,0,1,23,17.21a.84.84,0,0,1-.63,1.41c-.5.07-2.94,0-3.06,0a2.4,2.4,0,0,1-1.7-.67c-.51-.5-1-1-1.48-1.56a4,4,0,0,0-.48-.44.58.58,0,0,0-1,.24,9.58,9.58,0,0,0-.31,1.57.82.82,0,0,1-.87.81A8.17,8.17,0,0,1,9,17.73a9.45,9.45,0,0,1-2.95-2.57A30.64,30.64,0,0,1,2.83,9.79c-.05-.1-1-2.12-1-2.22a.58.58,0,0,1,.27-.73c.16-.06,3.3,0,3.35,0A1.07,1.07,0,0,1,6.47,7.6Z"/></g></g></g></g></svg>