<svg xmlns="http://www.w3.org/2000/svg" xmlns:xlink="http://www.w3.org/1999/xlink" viewBox="0 0 25 25"><defs><style>.cls-1{fill:#fff;}.cls-2{fill:#d8d8d8;}.cls-3{mask:url(#mask);}.cls-4{fill:#dc472e;}</style><mask id="mask" x="0" y="0" width="25" height="25" maskUnits="userSpaceOnUse"><g id="mask-9"><rect id="path-8" class="cls-1" width="25" height="25" rx="5" ry="5"/></g></mask></defs><title>youtube-2</title><g id="Слой_2" data-name="Слой 2"><g id="Слой_1-2" data-name="Слой 1"><g id="youtube-2"><g id="Mask-2" data-name="Mask"><rect id="path-8-2" data-name="path-8" class="cls-2" width="25" height="25" rx="5" ry="5"/></g><g class="cls-3"><rect id="Rectangle-path" class="cls-4" width="24.99" height="24.99"/><g id="Group"><path id="Shape" class="cls-1" d="M14.43,16a.63.63,0,0,0-.06-.27.31.31,0,0,0-.27-.19.48.48,0,0,0-.36.14.25.25,0,0,0-.07.09v3l0,0A.53.53,0,0,0,14,19a.3.3,0,0,0,.4-.23.76.76,0,0,0,0-.15C14.44,17.76,14.44,16.87,14.43,16Zm0,0a.63.63,0,0,0-.06-.27.31.31,0,0,0-.27-.19.48.48,0,0,0-.36.14.25.25,0,0,0-.07.09v3l0,0A.53.53,0,0,0,14,19a.3.3,0,0,0,.4-.23.76.76,0,0,0,0-.15C14.44,17.76,14.44,16.87,14.43,16Zm3.32-4.46q-5.26-.1-10.51,0a2.24,2.24,0,0,0-2.19,2.24v5.47a2.23,2.23,0,0,0,2.19,2.23q5.25.12,10.51,0a2.23,2.23,0,0,0,2.18-2.23V13.77A2.24,2.24,0,0,0,17.75,11.53Zm-9.48,8.2h-1V14h-1v-1H9.32V14H8.27Zm3.61-2.37v2.37H11v-.54l-.07.08a1.71,1.71,0,0,1-.69.49.86.86,0,0,1-.42,0,.52.52,0,0,1-.4-.32,1.18,1.18,0,0,1-.1-.52V14.82h.89s0,2.51,0,3.72a1.41,1.41,0,0,0,0,.2.22.22,0,0,0,.32.17,1,1,0,0,0,.43-.34.13.13,0,0,0,0-.09V14.81h.89Zm3.4,1.9a.74.74,0,0,1-.76.54,1,1,0,0,1-.76-.35l-.09-.09v.37h-.89V13.07h.89v2.19a.72.72,0,0,1,.1-.15,1.14,1.14,0,0,1,.52-.33.77.77,0,0,1,.92.42,1.65,1.65,0,0,1,.15.75v2.8A1.51,1.51,0,0,1,15.28,19.26Zm3.31-.19a1.08,1.08,0,0,1-.94.78,1.49,1.49,0,0,1-.86-.09,1.19,1.19,0,0,1-.68-.86,2.6,2.6,0,0,1-.06-.56q0-1.1,0-2.19a1.46,1.46,0,0,1,.35-1,1.29,1.29,0,0,1,1.12-.43,1.59,1.59,0,0,1,.38.07,1.07,1.07,0,0,1,.74.88,2,2,0,0,1,.05.49c0,.39,0,1.25,0,1.25H17v1.23a.4.4,0,1,0,.8,0V18h.93A4.37,4.37,0,0,1,18.59,19.07Zm-.82-3.13a.4.4,0,0,0-.8,0v.69h.8Zm-3.4-.22a.31.31,0,0,0-.27-.19.48.48,0,0,0-.36.14.25.25,0,0,0-.07.09v3l0,0A.53.53,0,0,0,14,19a.3.3,0,0,0,.4-.23.76.76,0,0,0,0-.15c0-.88,0-1.77,0-2.65A.63.63,0,0,0,14.37,15.72Z"/><path id="Shape-2" data-name="Shape" class="cls-1" d="M16.66,5.21v5h-.92V9.62a3.7,3.7,0,0,1-.28.28,1.2,1.2,0,0,1-.58.3.59.59,0,0,1-.75-.39,1.57,1.57,0,0,1-.05-.37V5.21H15V9a.76.76,0,0,0,0,.15.21.21,0,0,0,.29.18A1,1,0,0,0,15.73,9s0-.06,0-.09V5.21Z"/><path id="Shape-3" data-name="Shape" class="cls-1" d="M9.08,6.07,8.46,3.46h-1s.8,2.66,1.16,3.84a.59.59,0,0,1,0,.14v2.71h1V7.44a.32.32,0,0,1,0-.14c.36-1.18,1.16-3.84,1.16-3.84H9.69s-.41,1.77-.61,2.61Z"/><path id="Shape-4" data-name="Shape" class="cls-1" d="M12,5.08A1.32,1.32,0,0,0,10.68,6.4V9a1.32,1.32,0,0,0,2.63,0V6.4A1.32,1.32,0,0,0,12,5.08ZM12.37,9a.38.38,0,1,1-.76,0V6.34a.38.38,0,0,1,.76,0Z"/></g></g></g></g></g></svg>